inDegrees=no
num_controls=7
num_derivatives=13
num_iterations=90
num_multipliers=7
num_parameters=0
num_slacks=7
num_states=26
objective=0.545225
objective_accelerations=0.041389
objective_balance=0.003709
objective_effort=0.040541
objective_height=0.450122
objective_ligament=0.009464
solver_duration=1051.048334
status=Solve_Succeeded
success=true
DataType=double
version=3
OpenSimVersion=4.5
endheader
time	/jointset/ground_pelvis/pelvis_tilt/value	/jointset/ground_pelvis/pelvis_tx/value	/jointset/ground_pelvis/pelvis_ty/value	/jointset/hip_r/hip_flexion_r/value	/jointset/hip_r/hip_adduction_r/value	/jointset/hip_r/hip_rotation_r/value	/jointset/back/lumbar_extension/value	/jointset/patellofemoral_r/patellar_flexion_r/value	/jointset/knee_r/knee_flexion_r/value	/jointset/knee_r/knee_adduction_r/value	/jointset/knee_r/knee_rotation_r/value	/jointset/ankle_r/ankle_angle_r/value	/jointset/subtalar_r/subtalar_angle_r/value	/jointset/ground_pelvis/pelvis_tilt/speed	/jointset/ground_pelvis/pelvis_tx/speed	/jointset/ground_pelvis/pelvis_ty/speed	/jointset/hip_r/hip_flexion_r/speed	/jointset/hip_r/hip_adduction_r/speed	/jointset/hip_r/hip_rotation_r/speed	/jointset/back/lumbar_extension/speed	/jointset/patellofemoral_r/patellar_flexion_r/speed	/jointset/knee_r/knee_flexion_r/speed	/jointset/knee_r/knee_adduction_r/speed	/jointset/knee_r/knee_rotation_r/speed	/jointset/ankle_r/ankle_angle_r/speed	/jointset/subtalar_r/subtalar_angle_r/speed	/forceset/tau_hip_flexion_r	/forceset/tau_hip_adduction_r	/forceset/tau_hip_rotation_r	/forceset/tau_knee_flexion_r	/forceset/tau_ankle_angle_r	/forceset/tau_subtalar_angle_r	/forceset/tau_lumbar_extension	lambda_cid13_p0	lambda_cid14_p0	lambda_cid14_p1	lambda_cid14_p2	lambda_cid14_p3	lambda_cid14_p4	lambda_cid14_p5	/jointset/ground_pelvis/pelvis_tilt/accel	/jointset/ground_pelvis/pelvis_tx/accel	/jointset/ground_pelvis/pelvis_ty/accel	/jointset/hip_r/hip_flexion_r/accel	/jointset/hip_r/hip_adduction_r/accel	/jointset/hip_r/hip_rotation_r/accel	/jointset/back/lumbar_extension/accel	/jointset/patellofemoral_r/patellar_flexion_r/accel	/jointset/knee_r/knee_flexion_r/accel	/jointset/knee_r/knee_adduction_r/accel	/jointset/knee_r/knee_rotation_r/accel	/jointset/ankle_r/ankle_angle_r/accel	/jointset/subtalar_r/subtalar_angle_r/accel	gamma_cid13_p0	gamma_cid14_p0	gamma_cid14_p1	gamma_cid14_p2	gamma_cid14_p3	gamma_cid14_p4	gamma_cid14_p5
1.5	-0.2249304960313213	0.008348369593837885	0.8493945086056891	0.8677583090179929	-0.2254547083510181	-0.1420562360069919	-0.3062154862405806	0.6540647437256837	0.6540647437259891	0.03675919341803657	0.1744773216484417	0.1789062513735122	0.03899134386297044	0.547328739299565	0.2296324500335672	0.3980143602288903	-1.95966343993844	0.01251496813181133	-0.2900843761141196	0.686548313741613	-1.739700991249961	-1.73970099125008	0.27470439221554	0.0002016525357028014	-0.4081960615061449	-0.09009796090279169	-0.1428791460838941	-0.01637558844010941	0.007736516530650173	-0.2935731390818828	0.1019976118378718	-0.01223882127304416	0.175538920337918	-33.87438074576322	-9.023963154282823	-2.704718419762026	-3.895535694064063	-1.602375317312816	-659.413737834578	55.20083680580935	0.2638480920747442	0.51073611520863	-0.4441439191724375	-1.140179010908942	0.00287206600300615	-0.5106759790688807	1.634176700504694	-1.10326602512423	-1.103266025124077	0.4485956508433531	0.006948379294689567	-0.3491306767200106	-0.04935703346423659	1.225548426813534e-07	1.807878089600188e-07	-3.893594223967003e-07	1.234202066016789e-06	-5.985766374014145e-08	2.37374041425141e-07	-4.58574290308304e-07
1.51	-0.2194445431906872	0.010669990381019	0.8533516251007773	0.8481067416253266	-0.2253302883430007	-0.1449814918478434	-0.2992693361807101	0.6366148035347012	0.6366148035352025	0.03953080099864249	0.174479732638871	0.1748071731386805	0.03808691011390839	0.5497841089681899	0.2346633829193382	0.39332653028471	-1.970391577933463	0.01236909454887003	-0.2949491023502582	0.7025991919412707	-1.750049056411395	-1.750049056411355	0.2796026152472535	0.0002715317118102879	-0.4115565242036154	-0.09077090800774182	-0.1353028288761612	-0.01808143345039355	0.007114784068425042	-0.2907519286266751	0.104095417776282	-0.01270484873948735	0.1690034098626074	-34.78570806429931	-8.156429646108217	-2.648006180322612	-4.027035342003438	-1.854363948579415	-655.4422443529178	55.422680983333	0.2247427760287751	0.4950123096712081	-0.4934128734414853	-1.000337282426493	-0.0231650588063788	-0.4715047390122618	1.578167436088985	-0.9649047218788638	-0.9649047218552677	0.5082559379112725	0.005899205210270862	-0.3200368925676849	-0.07350475075032188	1.292522463010155e-07	1.853760038378847e-07	-4.434492437375214e-07	1.267652597047091e-06	-5.629844938916141e-08	2.487900774630148e-07	-5.076157195596403e-07
1.52	-0.2139363643790107	0.01304106858393987	0.8572594012281435	0.828355651634986	-0.2252072966684907	-0.1479548217096775	-0.2921651525275636	0.6190685171000605	0.6190685171007555	0.04235095487127512	0.1744826207247512	0.1706763837116128	0.03717629865344879	0.5517739335077051	0.2395239331815195	0.3881462866845001	-1.979567959473587	0.01222930143138321	-0.2996991803114339	0.7181550323966306	-1.758970239981867	-1.75897023998167	0.2844136506220052	0.0002970716255771147	-0.4145382999533704	-0.09133350318228854	-0.1277265116684226	-0.01978727846067473	0.006493051606190083	-0.2879307181714671	0.1061932237146925	-0.01317087620592699	0.1624678993873023	-35.66584586074465	-7.296964464548864	-2.589883170259558	-4.161985890214253	-2.105581990892907	-651.6008601550876	55.72175134252241	0.1707390662528829	0.4766595904906608	-0.5426266503783875	-0.8298277199291565	0.004088159093903034	-0.4877463240763099	1.535169151645122	-0.8178897069320088	-0.8178897069320105	0.4311581194510106	-0.001919473173457295	-0.2733932871769587	-0.02728664738356106	1.369826397179156e-07	1.872680085806087e-07	-5.256431217014715e-07	1.283166341148925e-06	-4.818898885545246e-08	2.584180336941688e-07	-5.640939947641119e-07
1.53	-0.2084106541552444	0.01545987162146461	0.8611129788216954	0.8085205496598872	-0.2250857208763041	-0.150975379193025	-0.2849079423928813	0.601440141218975	0.60144014121944	0.04521870349113905	0.1744858091488008	0.1665176780650739	0.03626056525583555	0.5532862176877877	0.2442049884369064	0.3824935486067896	-1.987190297938374	0.01208765410117008	-0.3043968672497457	0.7331977816241534	-1.766465405349922	-1.766465405349662	0.2891153054459832	0.000333990836102337	-0.4171366255985479	-0.09179286938170236	-0.1200649254886772	-0.02172106865567078	0.005894230771241782	-0.2853300719478833	0.1085860384412057	-0.01376771115260608	0.1558731705744288	-36.51027278852614	-6.360120751680014	-2.579117371092205	-4.28470698343715	-2.39298294944137	-647.9385230173384	55.99448615216262	0.1292082001793645	0.4590699469218808	-0.5878958426513109	-0.6890916649246294	-0.02290439948043138	-0.4582323917649418	1.475445871033891	-0.6794304262792183	-0.6794304262697974	0.4865205261334093	0.005748032369491262	-0.2431085520128423	-0.05217535707823594	1.458105847943813e-07	1.862953113047445e-07	-6.376975598274959e-07	1.279622249139262e-06	-3.52448917525941e-08	2.661461551306828e-07	-6.284739187937899e-07
1.54	-0.2028722740684168	0.01792453350231513	0.8649077693432333	0.7886170933491078	-0.2249654842015044	-0.1540424040483637	-0.2775029811533772	0.5837439935893026	0.5837439935895345	0.04813283893169042	0.1744892168477985	0.1623349778923184	0.03534085544605655	0.5543079061196007	0.2486957018466774	0.3763888722817154	-1.993238826610009	0.01196147795489808	-0.308992654710311	0.7477052533607926	-1.772524589699455	-1.772524589699132	0.2936910147604507	0.0003409266147864239	-0.4193372051967132	-0.09212878561543369	-0.1124033393089265	-0.02365485885066423	0.005295409936288317	-0.2827294257242993	0.1109788531677192	-0.01436454609928167	0.1492784417615604	-37.31446460693015	-5.432158888425945	-2.566922968300413	-4.411064840594845	-2.677439375912232	-644.4194987018365	56.34914668613052	0.07261991659901627	0.438591221367431	-0.6330142998511562	-0.5150657612989611	0.007182395882131378	-0.4673664285269952	1.428113653468435	-0.5306935032276313	-0.5306935032275527	0.4059690175489036	-0.007916159541700848	-0.1938440777745788	-0.002596654247068292	1.542848543929536e-07	1.851642203661308e-07	-7.442000857452701e-07	1.275588074000207e-06	-2.289283390403328e-08	2.73374032615891e-07	-6.891994428937707e-07
